<svg width="129" height="34" viewBox="0 0 129 34" fill="none" xmlns="http://www.w3.org/2000/svg">
<g clip-path="url(#clip0_5_198)">
<path d="M14.0035 25.1363C13.7237 25.7476 13.3952 26.2733 13.2492 26.848C13.1154 27.3859 12.8599 27.6426 12.3489 27.7404C12.0691 27.7893 11.8014 27.8627 11.5703 27.9238C11.5581 28.1072 11.6068 28.3151 11.5216 28.4373C11.4729 28.5107 11.1809 28.5107 11.0958 28.4373C11.0106 28.364 11.0349 28.1561 10.9984 27.9605C10.8159 27.936 10.5604 27.8871 10.305 27.8505C10.3171 27.9116 10.3293 27.9605 10.3414 28.0216C10.1346 28.0828 9.91563 28.1317 9.7088 28.1928C9.6723 28.0216 9.62363 27.8627 9.5993 27.7771C9.07615 27.178 8.52866 26.6401 8.07851 26.0288C7.45802 25.1975 6.7767 24.4884 5.71823 24.2805C5.59657 24.2561 5.4749 24.2072 5.3654 24.2316C5.12208 24.2928 4.89092 24.4028 4.64759 24.4884C4.78142 24.6962 4.85442 24.9896 5.04908 25.1119C6.13189 25.7843 6.75237 26.799 7.26336 27.936C7.85951 29.2931 9.02748 29.9289 10.4388 30.0633C11.2783 30.1367 12.1299 30.0756 13.0667 30.0756C13.0667 31.0781 13.1032 32.1906 13.0546 33.3032C13.0302 33.9145 12.4341 34.1957 11.7406 33.9145C10.6943 33.4866 9.6358 33.0587 8.65032 32.4963C1.66683 28.4495 -1.64242 19.867 0.803017 12.2626C3.34579 4.31577 10.8281 -0.696817 18.9552 0.0734095C27.1432 0.843636 33.64 7.18884 34.6255 15.3557C35.5867 23.278 30.9391 30.9314 23.4933 33.7311C23.3595 33.78 23.2256 33.8289 23.0918 33.8778C22.1672 34.1712 21.6683 33.8167 21.6683 32.8508C21.6683 31.3715 21.6805 29.88 21.6927 28.4006C21.7048 27.227 21.4737 26.1389 20.622 25.1852C20.8167 25.1241 20.9505 25.0752 21.0965 25.0385C21.6927 24.9163 22.2888 24.8307 22.8728 24.6718C26.0726 23.8404 27.9462 21.6398 28.3355 18.351C28.5423 16.5905 28.6153 14.8055 27.6299 13.2528C27.0215 12.287 26.7174 11.4312 26.9485 10.2453C27.1067 9.41393 26.766 8.497 26.6322 7.61674C26.5836 7.27442 26.3646 7.09103 26.0361 7.18884C25.0749 7.48225 24.0529 7.66564 23.1891 8.14245C22.1915 8.70484 21.3155 8.94935 20.1475 8.68039C17.9333 8.17913 15.6825 8.35029 13.456 8.86377C13.2005 8.9249 12.8721 8.8271 12.6166 8.71706C11.4851 8.24026 10.3901 7.65342 9.23431 7.24996C8.34617 6.94432 8.2245 7.10325 7.96901 8.02019C7.66485 9.12051 7.60402 10.2331 7.92034 11.3334C8.02984 11.7246 7.96901 11.9691 7.71351 12.2626C5.26807 15.0623 5.97372 21.6887 9.55064 23.7181C10.7551 24.4028 12.0326 24.7818 13.383 25.0141C13.6264 25.063 13.8332 25.0997 14.0035 25.1363Z" fill="#323151"/>
<path d="M84.3129 14.2797C86.5272 14.2797 88.6442 14.2797 90.8584 14.2797C90.8584 14.023 90.8584 13.7907 90.8584 13.5584C90.8584 11.2355 90.8584 8.92479 90.8584 6.60188C90.8584 5.83166 90.8949 5.79498 91.6371 5.79498C92.7929 5.79498 93.9487 5.8072 95.1045 5.78275C95.6033 5.77053 95.7736 5.97837 95.7736 6.4674C95.7615 13.6317 95.7615 20.7838 95.7736 27.9482C95.7736 28.4983 95.5547 28.645 95.0437 28.6328C93.8879 28.6084 92.7321 28.6084 91.5762 28.6328C91.0166 28.645 90.8341 28.4494 90.8341 27.887C90.8584 25.124 90.8463 22.361 90.8584 19.5857C90.8584 19.3412 90.8584 19.1089 90.8584 18.8277C88.6563 18.8277 86.5272 18.8277 84.3129 18.8277C84.3129 19.0967 84.3129 19.329 84.3129 19.5612C84.3129 22.3243 84.3008 25.0873 84.3251 27.8626C84.3251 28.4616 84.1183 28.645 83.5464 28.6206C82.3906 28.5839 81.2348 28.5961 80.079 28.6206C79.568 28.6328 79.4099 28.425 79.4099 27.9359C79.422 20.7716 79.422 13.6195 79.4099 6.45517C79.4099 5.96614 79.568 5.7583 80.079 5.77053C81.2713 5.79498 82.4636 5.79498 83.6681 5.77053C84.1791 5.7583 84.3251 5.97837 84.3251 6.4674C84.3129 8.80253 84.3129 11.1499 84.3129 13.485C84.3129 13.7418 84.3129 13.9863 84.3129 14.2797Z" fill="#323151"/>
<path d="M52.7655 19.6468C51.8652 19.6468 51.0379 19.6223 50.2106 19.659C49.6996 19.6712 49.4684 19.5123 49.4806 18.9621C49.5049 17.9474 49.5049 16.9326 49.4806 15.9179C49.4684 15.4411 49.6509 15.2699 50.1254 15.2699C52.4127 15.2822 54.7 15.2822 56.9873 15.2699C57.4374 15.2699 57.6442 15.3922 57.6442 15.8935C57.6321 19.5367 57.6321 23.1678 57.6442 26.8111C57.6442 27.2023 57.4861 27.3979 57.1698 27.5691C55.7341 28.3638 54.189 28.8406 52.5587 28.9995C50.4296 29.2074 48.3005 29.1218 46.2565 28.4249C43.5191 27.4835 41.7671 25.5519 40.9642 22.8133C39.7962 18.8032 39.857 14.7687 41.1953 10.8075C42.412 7.21312 45.0399 5.37925 48.7263 5.01248C50.9284 4.79241 53.094 4.93912 55.2231 5.51374C56.8169 5.94164 56.8413 6.00277 56.4641 7.5799C56.2938 8.289 56.0991 8.99809 55.9653 9.71942C55.868 10.2451 55.6368 10.3185 55.1623 10.1718C53.2765 9.57271 51.3542 9.43822 49.4076 9.78055C47.6557 10.0862 46.439 11.1009 45.8794 12.7636C44.8939 15.6856 44.9061 18.6443 45.9159 21.554C46.585 23.4735 48.045 24.4149 50.0646 24.4271C50.8311 24.4271 51.5976 24.3782 52.364 24.2926C52.51 24.2804 52.7534 24.0114 52.7534 23.8525C52.7777 22.4709 52.7655 21.1017 52.7655 19.6468Z" fill="#323151"/>
<path d="M119.121 13.4606C120.167 13.1794 121.141 12.8126 122.138 12.6659C125.679 12.1524 128.075 13.913 128.72 17.4585C129.146 19.7447 129.073 22.0309 128.611 24.3049C127.856 28.0705 125.654 29.3908 121.846 28.9996C120.459 28.8529 119.182 28.3761 118.062 27.5203C118.002 27.5692 117.965 27.5937 117.953 27.6303C117.77 28.6328 117.953 28.6573 116.724 28.6451C116.14 28.6451 115.544 28.6084 114.96 28.6573C114.364 28.694 114.206 28.4617 114.206 27.8748C114.23 23.2779 114.218 18.6933 114.218 14.0963C114.218 11.5778 114.23 9.05931 114.206 6.54079C114.206 5.97841 114.388 5.79502 114.948 5.80725C116.104 5.8317 117.259 5.8317 118.403 5.80725C118.926 5.79502 119.121 5.96618 119.109 6.50412C119.097 8.82702 119.121 11.1622 119.121 13.4606ZM119.024 20.7472C119.024 21.7986 118.999 22.8623 119.048 23.9137C119.06 24.1337 119.255 24.4394 119.449 24.5372C120.338 25.0018 121.299 25.124 122.284 25.0018C123.014 24.9162 123.562 24.5372 123.756 23.8159C124.279 21.8964 124.352 19.9647 123.756 18.0453C123.464 17.1161 122.759 16.566 121.797 16.6149C121.007 16.6638 120.228 16.9205 119.449 17.1039C119.097 17.1895 119.011 17.4462 119.024 17.8008C119.036 18.7911 119.024 19.7691 119.024 20.7472Z" fill="#323151"/>
<path d="M108.536 27.5815C106.687 28.7062 104.765 29.2319 102.672 29.0486C101.978 28.9874 101.261 28.8652 100.604 28.6329C98.6571 27.936 97.9149 26.3467 97.8663 24.4272C97.7811 21.2729 97.8298 18.1187 97.8176 14.9766C97.8176 14.5243 97.8298 14.0842 97.8176 13.6318C97.8054 13.2528 97.9636 13.0816 98.3529 13.0816C99.6304 13.0939 100.908 13.0939 102.185 13.0816C102.733 13.0816 102.733 13.424 102.733 13.8152C102.733 16.6638 102.733 19.5124 102.733 22.361C102.733 22.5077 102.733 22.6422 102.733 22.7889C102.733 24.7084 103.426 25.3075 105.336 25.0263C105.397 25.014 105.458 25.0018 105.519 24.9896C107.088 24.6473 107.198 24.5128 107.198 22.9356C107.198 19.9036 107.21 16.8716 107.186 13.8396C107.186 13.2406 107.368 13.0572 107.952 13.0694C109.108 13.1061 110.264 13.0939 111.42 13.0694C111.906 13.0572 112.052 13.2528 112.052 13.7174C112.04 18.4732 112.04 23.2291 112.052 27.9971C112.052 28.4617 111.906 28.6696 111.42 28.6451C110.75 28.6207 110.081 28.6084 109.412 28.6573C108.865 28.694 108.609 28.4862 108.609 27.9482C108.621 27.8504 108.585 27.7526 108.536 27.5815Z" fill="#323151"/>
<path d="M69.032 17.153C68.3263 17.153 67.6937 17.1408 67.0732 17.153C66.6595 17.1652 66.477 17.0063 66.4892 16.5784C66.5014 15.8082 66.4649 15.0257 66.5135 14.2555C66.5257 14.0476 66.769 13.7664 66.9759 13.6931C67.5112 13.4975 68.0708 13.3997 68.6183 13.2774C68.9346 13.2163 69.0441 13.0696 69.032 12.7395C69.0198 11.5413 69.032 10.3432 69.0198 9.14508C69.0076 8.74163 69.1536 8.60715 69.543 8.60715C70.7961 8.61937 72.0492 8.61937 73.3145 8.60715C73.716 8.59492 73.8499 8.74163 73.8499 9.13286C73.8377 10.1843 73.8499 11.2479 73.8499 12.3116C73.8499 12.5316 73.8499 12.7517 73.8499 13.0451C74.8232 13.0451 75.7235 13.0696 76.636 13.0329C77.1591 13.0084 77.3659 13.1674 77.3416 13.7175C77.3051 14.6345 77.3051 15.5514 77.3416 16.4683C77.3659 17.0185 77.1348 17.1774 76.6238 17.1652C75.7356 17.1408 74.8475 17.153 73.8864 17.153C73.8742 17.3853 73.8499 17.5809 73.8499 17.7765C73.8499 19.5859 73.8499 21.3954 73.8499 23.2048C73.8499 24.3785 74.4095 24.9653 75.5896 25.0142C76.0155 25.0386 76.4413 25.0142 76.8671 24.9775C77.2564 24.9531 77.4268 25.112 77.4268 25.5032C77.4146 26.3835 77.4511 27.2515 77.4024 28.1318C77.3903 28.3274 77.1591 28.6086 76.9766 28.6697C75.4315 29.1343 73.8742 29.171 72.3047 28.7431C70.5406 28.254 69.5308 27.0559 69.2023 25.2832C69.0928 24.6719 69.0563 24.0361 69.0563 23.4004C69.0198 21.3587 69.032 19.317 69.032 17.153Z" fill="#323151"/>
<path d="M60.041 20.7719C60.041 18.449 60.0532 16.1383 60.0289 13.8154C60.0167 13.2408 60.1992 13.0207 60.7953 13.0329C61.9633 13.0696 63.1434 13.0574 64.3114 13.0329C64.7494 13.0207 64.9319 13.1674 64.9319 13.632C64.9197 18.4123 64.9197 23.1804 64.9319 27.9606C64.9319 28.4252 64.7616 28.6331 64.2871 28.6208C63.1191 28.6086 61.939 28.6086 60.771 28.6208C60.2113 28.6331 60.041 28.3641 60.041 27.8384C60.0532 25.491 60.041 23.1314 60.041 20.7719Z" fill="#323151"/>
<path d="M65.2239 9.12043C65.1752 10.6242 63.9464 11.8468 62.4865 11.8101C60.99 11.7734 59.7855 10.4897 59.822 8.97372C59.8707 7.45772 61.0873 6.27182 62.5595 6.29627C64.0924 6.33295 65.2726 7.59221 65.2239 9.12043Z" fill="#323151"/>
</g>
<defs>
<clipPath id="clip0_5_198">
<rect width="129" height="34" fill="white"/>
</clipPath>
</defs>
</svg>
