<svg width="55" height="51" viewBox="0 0 55 51" fill="none" xmlns="http://www.w3.org/2000/svg">
<path d="M8.07618 10.2734C8.33425 10.4104 8.56197 10.5018 8.75932 10.654C9.74607 11.4154 10.7328 12.1919 11.7196 12.9837C11.8562 13.0902 11.9625 13.1055 12.1446 13.0293C12.6911 12.7857 13.2376 12.5421 13.7993 12.3442C14.0574 12.2528 14.1485 12.1158 14.1789 11.8569C14.3155 10.7454 14.4673 9.63388 14.6343 8.50714C14.6646 8.24829 14.7254 7.98945 14.8013 7.74583C14.9379 7.30426 15.2112 7.10632 15.6818 7.10632C17.4275 7.10632 19.1885 7.10632 20.9343 7.10632C21.4353 7.10632 21.7693 7.3804 21.8452 7.88286C22.0577 9.20755 22.255 10.5322 22.4372 11.8569C22.4676 12.1005 22.5587 12.2376 22.8015 12.3289C23.3481 12.5269 23.8946 12.7705 24.4259 13.0141C24.5777 13.0902 24.684 13.075 24.8206 12.9684C25.8681 12.1614 26.9307 11.3697 27.9782 10.5779C28.3881 10.2734 28.8435 10.2582 29.2078 10.6084C30.3616 11.7503 31.5153 12.9075 32.6539 14.0799C32.8209 14.2474 32.9423 14.4454 33.0789 14.6433C33.4129 15.1306 33.3977 15.3742 33.0334 15.831C32.4869 16.5466 31.9252 17.2622 31.3635 17.9931C31.1206 18.3128 30.7411 18.6174 30.6956 18.9676C30.65 19.3025 30.9536 19.6984 31.0903 20.0639C31.2269 20.4141 31.3787 20.7795 31.5001 21.1297C31.5609 21.2972 31.6368 21.3733 31.8038 21.3885C33.0941 21.5713 34.3997 21.7692 35.69 21.9671C36.3732 22.0737 36.6312 22.363 36.6312 23.0634C36.6312 24.7079 36.6312 26.3675 36.6312 28.012C36.6312 28.7124 36.3732 29.0017 35.69 29.1083C34.3693 29.3062 33.0486 29.5194 31.7278 29.7173C31.576 29.7478 31.5153 29.8087 31.4546 29.9457C31.2117 30.5395 30.9688 31.1486 30.7107 31.7272C30.6348 31.8947 30.65 31.986 30.7563 32.1231C31.5305 33.0975 32.2895 34.0872 33.0638 35.0617C33.504 35.6099 33.5192 35.9753 33.0789 36.5082C32.0011 37.7872 30.8625 38.9901 29.5874 40.0864C29.4356 40.2082 29.2837 40.33 29.1168 40.4366C28.6461 40.7259 28.3577 40.7107 27.9175 40.3757C26.9155 39.5991 25.9288 38.8226 24.942 38.0308C24.7902 37.909 24.6688 37.8786 24.4714 37.9699C23.8946 38.2288 23.3177 38.4572 22.7256 38.6703C22.5587 38.7312 22.4979 38.8074 22.4827 38.9749C22.2854 40.33 22.1032 41.6851 21.8755 43.0403C21.7693 43.695 21.4808 43.9082 20.8129 43.9082C19.1582 43.9082 17.5034 43.9082 15.8487 43.9082C15.1808 43.9082 14.8924 43.6645 14.7861 43.0098C14.5887 41.7004 14.3914 40.3909 14.2092 39.0814C14.1789 38.8683 14.103 38.7617 13.8904 38.6856C13.3591 38.4876 12.8429 38.2897 12.342 38.0461C12.0839 37.9243 11.9169 37.9547 11.7044 38.1222C10.7025 38.8987 9.68534 39.66 8.66823 40.4366C8.25835 40.7411 7.80293 40.7716 7.43859 40.4061C6.25449 39.2337 5.07038 38.0308 3.90146 36.828C3.74965 36.6757 3.64339 36.493 3.52194 36.3103C3.24869 35.8839 3.24869 35.6555 3.5523 35.2597C4.09881 34.5288 4.6605 33.8132 5.22219 33.0975C5.4499 32.793 5.67762 32.4885 5.92051 32.184C6.01159 32.0621 6.02677 31.9708 5.96605 31.8338C5.66243 31.1638 5.38918 30.4938 5.10074 29.8239C5.0552 29.7325 4.93376 29.6412 4.84267 29.6259C3.4764 29.3976 2.09495 29.1844 0.713497 28.956C0.273254 28.8799 0 28.5753 0 28.1185C0 26.3523 0 24.5708 0 22.8046C0 22.3173 0.333977 21.9824 0.804582 21.9062C2.15567 21.6931 3.52194 21.4799 4.87303 21.282C5.02484 21.2515 5.10075 21.1906 5.16147 21.0383C5.38918 20.4445 5.63207 19.8659 5.90533 19.2721C5.98123 19.1046 5.98123 18.998 5.87497 18.8458C5.13111 17.9017 4.38725 16.9425 3.64339 15.9832C3.52194 15.831 3.4005 15.6939 3.32459 15.5264C3.18797 15.2219 3.18797 14.9022 3.41568 14.6281C4.5846 13.1664 5.87497 11.8265 7.36268 10.6845C7.54485 10.5018 7.80293 10.4104 8.07618 10.2734ZM18.2929 32.8387C22.3765 32.8539 25.6252 29.6259 25.6404 25.5149C25.6707 21.419 22.422 18.1301 18.3384 18.1149C14.2548 18.0997 11.0213 21.3429 10.9605 25.4235C10.8998 29.4432 14.3003 32.9148 18.2929 32.8387Z" fill="url(#paint0_linear_2_106)"/>
<path d="M8.07618 10.2734C8.33425 10.4104 8.56197 10.5018 8.75932 10.654C9.74607 11.4154 10.7328 12.1919 11.7196 12.9837C11.8562 13.0902 11.9625 13.1055 12.1446 13.0293C12.6911 12.7857 13.2376 12.5421 13.7993 12.3442C14.0574 12.2528 14.1485 12.1158 14.1789 11.8569C14.3155 10.7454 14.4673 9.63388 14.6343 8.50714C14.6646 8.24829 14.7254 7.98945 14.8013 7.74583C14.9379 7.30426 15.2112 7.10632 15.6818 7.10632C17.4275 7.10632 19.1885 7.10632 20.9343 7.10632C21.4353 7.10632 21.7693 7.3804 21.8452 7.88286C22.0577 9.20755 22.255 10.5322 22.4372 11.8569C22.4676 12.1005 22.5587 12.2376 22.8015 12.3289C23.3481 12.5269 23.8946 12.7705 24.4259 13.0141C24.5777 13.0902 24.684 13.075 24.8206 12.9684C25.8681 12.1614 26.9307 11.3697 27.9782 10.5779C28.3881 10.2734 28.8435 10.2582 29.2078 10.6084C30.3616 11.7503 31.5153 12.9075 32.6539 14.0799C32.8209 14.2474 32.9423 14.4454 33.0789 14.6433C33.4129 15.1306 33.3977 15.3742 33.0334 15.831C32.4869 16.5466 31.9252 17.2622 31.3635 17.9931C31.1206 18.3128 30.7411 18.6174 30.6956 18.9676C30.65 19.3025 30.9536 19.6984 31.0903 20.0639C31.2269 20.4141 31.3787 20.7795 31.5001 21.1297C31.5609 21.2972 31.6368 21.3733 31.8038 21.3885C33.0941 21.5713 34.3997 21.7692 35.69 21.9671C36.3732 22.0737 36.6312 22.363 36.6312 23.0634C36.6312 24.7079 36.6312 26.3675 36.6312 28.012C36.6312 28.7124 36.3732 29.0017 35.69 29.1083C34.3693 29.3062 33.0486 29.5194 31.7278 29.7173C31.576 29.7478 31.5153 29.8087 31.4546 29.9457C31.2117 30.5395 30.9688 31.1486 30.7107 31.7272C30.6348 31.8947 30.65 31.986 30.7563 32.1231C31.5305 33.0975 32.2895 34.0872 33.0638 35.0617C33.504 35.6099 33.5192 35.9753 33.0789 36.5082C32.0011 37.7872 30.8625 38.9901 29.5874 40.0864C29.4356 40.2082 29.2837 40.33 29.1168 40.4366C28.6461 40.7259 28.3577 40.7107 27.9175 40.3757C26.9155 39.5991 25.9288 38.8226 24.942 38.0308C24.7902 37.909 24.6688 37.8786 24.4714 37.9699C23.8946 38.2288 23.3177 38.4572 22.7256 38.6703C22.5587 38.7312 22.4979 38.8074 22.4827 38.9749C22.2854 40.33 22.1032 41.6851 21.8755 43.0403C21.7693 43.695 21.4808 43.9082 20.8129 43.9082C19.1582 43.9082 17.5034 43.9082 15.8487 43.9082C15.1808 43.9082 14.8924 43.6645 14.7861 43.0098C14.5887 41.7004 14.3914 40.3909 14.2092 39.0814C14.1789 38.8683 14.103 38.7617 13.8904 38.6856C13.3591 38.4876 12.8429 38.2897 12.342 38.0461C12.0839 37.9243 11.9169 37.9547 11.7044 38.1222C10.7025 38.8987 9.68534 39.66 8.66823 40.4366C8.25835 40.7411 7.80293 40.7716 7.43859 40.4061C6.25449 39.2337 5.07038 38.0308 3.90146 36.828C3.74965 36.6757 3.64339 36.493 3.52194 36.3103C3.24869 35.8839 3.24869 35.6555 3.5523 35.2597C4.09881 34.5288 4.6605 33.8132 5.22219 33.0975C5.4499 32.793 5.67762 32.4885 5.92051 32.184C6.01159 32.0621 6.02677 31.9708 5.96605 31.8338C5.66243 31.1638 5.38918 30.4938 5.10074 29.8239C5.0552 29.7325 4.93376 29.6412 4.84267 29.6259C3.4764 29.3976 2.09495 29.1844 0.713497 28.956C0.273254 28.8799 0 28.5753 0 28.1185C0 26.3523 0 24.5708 0 22.8046C0 22.3173 0.333977 21.9824 0.804582 21.9062C2.15567 21.6931 3.52194 21.4799 4.87303 21.282C5.02484 21.2515 5.10075 21.1906 5.16147 21.0383C5.38918 20.4445 5.63207 19.8659 5.90533 19.2721C5.98123 19.1046 5.98123 18.998 5.87497 18.8458C5.13111 17.9017 4.38725 16.9425 3.64339 15.9832C3.52194 15.831 3.4005 15.6939 3.32459 15.5264C3.18797 15.2219 3.18797 14.9022 3.41568 14.6281C4.5846 13.1664 5.87497 11.8265 7.36268 10.6845C7.54485 10.5018 7.80293 10.4104 8.07618 10.2734ZM18.2929 32.8387C22.3765 32.8539 25.6252 29.6259 25.6404 25.5149C25.6707 21.419 22.422 18.1301 18.3384 18.1149C14.2548 18.0997 11.0213 21.3429 10.9605 25.4235C10.8998 29.4432 14.3003 32.9148 18.2929 32.8387Z" fill="url(#paint1_linear_2_106)" fill-opacity="0.4"/>
<path d="M51.3566 2.41666C51.2503 2.76687 51.1896 3.10184 51.0682 3.40637C50.7038 4.33517 50.3243 5.24875 49.9448 6.16232C49.8841 6.31458 49.8841 6.42117 49.9752 6.57343C50.2029 6.93886 50.4002 7.31952 50.6279 7.68495C50.6887 7.7763 50.8101 7.86766 50.9164 7.88289C52.0246 8.0656 53.1328 8.21787 54.241 8.38535C54.2561 8.38535 54.2713 8.38535 54.3017 8.40058C54.9848 8.58329 54.9848 8.58329 54.9848 9.2837C54.9848 10.3648 54.9696 11.4458 55 12.5269C55 12.8466 54.8785 13.0141 54.6053 13.0598C53.8159 13.2121 53.0113 13.3643 52.2067 13.5014C51.7817 13.5775 51.3262 13.5927 50.9012 13.6689C50.8101 13.6841 50.6886 13.7754 50.6431 13.8668C50.4154 14.2322 50.218 14.6129 49.9903 14.9783C49.8992 15.1306 49.8841 15.2372 49.96 15.3894C50.385 16.4248 50.8101 17.445 51.1896 18.4956C51.4477 19.2112 51.4173 19.2264 50.7494 19.6071C49.8233 20.14 48.8821 20.6729 47.9561 21.2211C47.6829 21.3886 47.5007 21.3429 47.3033 21.1297C46.8783 20.6425 46.4532 20.1552 46.0433 19.6528C45.679 19.196 45.3146 18.724 44.9655 18.2367C44.8744 18.1149 44.7833 18.0693 44.6163 18.0693C44.1913 18.0845 43.751 18.0845 43.326 18.0693C43.159 18.0693 43.0831 18.1149 42.9768 18.2367C42.2633 19.1503 41.5498 20.0639 40.806 20.9622C40.3961 21.4495 40.3809 21.419 39.8344 21.1145C38.8476 20.5511 37.8761 19.9725 36.8893 19.4244C36.6768 19.3026 36.5857 19.1503 36.6616 18.9219C36.9349 18.1454 37.1929 17.3688 37.4814 16.5923C37.6332 16.166 37.8457 15.7701 38.0127 15.359C38.0582 15.2676 38.0279 15.1001 37.9823 15.0088C37.785 14.6281 37.5573 14.2627 37.3447 13.882C37.2688 13.745 37.1929 13.6689 37.0259 13.6536C36.1151 13.5318 35.1891 13.4252 34.2782 13.273C33.9442 13.2273 33.6103 13.1207 33.2763 13.0294C33.0486 12.9685 32.9575 12.8314 32.9575 12.5726C32.9727 11.3849 32.9727 10.1821 32.9575 8.9944C32.9575 8.72033 33.0486 8.55284 33.3066 8.50716C33.9594 8.37013 34.6122 8.21787 35.2802 8.11128C35.857 8.01992 36.4491 7.95902 37.0411 7.89811C37.2081 7.88289 37.284 7.80676 37.3447 7.66972C37.5421 7.30429 37.7546 6.92363 37.9671 6.57343C38.0582 6.43639 38.0734 6.31458 38.0127 6.16232C37.5876 5.12694 37.1626 4.10678 36.783 3.05617C36.525 2.34053 36.5553 2.32531 37.2233 1.94465C38.1341 1.42696 39.045 0.894038 39.9406 0.376346C40.3505 0.132726 40.3961 0.1175 40.6997 0.48293C41.4739 1.3965 42.2178 2.31008 42.9616 3.25411C43.0831 3.40637 43.1893 3.46727 43.4019 3.45205C43.7814 3.4216 44.1761 3.40637 44.5556 3.45205C44.7833 3.4825 44.9048 3.39114 45.0414 3.22365C45.8004 2.27963 46.5747 1.35083 47.3337 0.422025C47.5159 0.193631 47.698 0.178405 47.9409 0.315441C49.0036 0.939717 50.0662 1.53354 51.1289 2.14259C51.22 2.21872 51.2807 2.32531 51.3566 2.41666ZM47.6525 10.8063C47.6677 8.79646 46.013 7.10635 44.0243 7.09112C42.0204 7.0759 40.3505 8.72033 40.3354 10.7302C40.3202 12.7857 41.9142 14.4302 43.9636 14.4454C45.9978 14.4759 47.6373 12.8466 47.6525 10.8063Z" fill="url(#paint2_linear_2_106)"/>
<path d="M51.3566 2.41666C51.2503 2.76687 51.1896 3.10184 51.0682 3.40637C50.7038 4.33517 50.3243 5.24875 49.9448 6.16232C49.8841 6.31458 49.8841 6.42117 49.9752 6.57343C50.2029 6.93886 50.4002 7.31952 50.6279 7.68495C50.6887 7.7763 50.8101 7.86766 50.9164 7.88289C52.0246 8.0656 53.1328 8.21787 54.241 8.38535C54.2561 8.38535 54.2713 8.38535 54.3017 8.40058C54.9848 8.58329 54.9848 8.58329 54.9848 9.2837C54.9848 10.3648 54.9696 11.4458 55 12.5269C55 12.8466 54.8785 13.0141 54.6053 13.0598C53.8159 13.2121 53.0113 13.3643 52.2067 13.5014C51.7817 13.5775 51.3262 13.5927 50.9012 13.6689C50.8101 13.6841 50.6886 13.7754 50.6431 13.8668C50.4154 14.2322 50.218 14.6129 49.9903 14.9783C49.8992 15.1306 49.8841 15.2372 49.96 15.3894C50.385 16.4248 50.8101 17.445 51.1896 18.4956C51.4477 19.2112 51.4173 19.2264 50.7494 19.6071C49.8233 20.14 48.8821 20.6729 47.9561 21.2211C47.6829 21.3886 47.5007 21.3429 47.3033 21.1297C46.8783 20.6425 46.4532 20.1552 46.0433 19.6528C45.679 19.196 45.3146 18.724 44.9655 18.2367C44.8744 18.1149 44.7833 18.0693 44.6163 18.0693C44.1913 18.0845 43.751 18.0845 43.326 18.0693C43.159 18.0693 43.0831 18.1149 42.9768 18.2367C42.2633 19.1503 41.5498 20.0639 40.806 20.9622C40.3961 21.4495 40.3809 21.419 39.8344 21.1145C38.8476 20.5511 37.8761 19.9725 36.8893 19.4244C36.6768 19.3026 36.5857 19.1503 36.6616 18.9219C36.9349 18.1454 37.1929 17.3688 37.4814 16.5923C37.6332 16.166 37.8457 15.7701 38.0127 15.359C38.0582 15.2676 38.0279 15.1001 37.9823 15.0088C37.785 14.6281 37.5573 14.2627 37.3447 13.882C37.2688 13.745 37.1929 13.6689 37.0259 13.6536C36.1151 13.5318 35.1891 13.4252 34.2782 13.273C33.9442 13.2273 33.6103 13.1207 33.2763 13.0294C33.0486 12.9685 32.9575 12.8314 32.9575 12.5726C32.9727 11.3849 32.9727 10.1821 32.9575 8.9944C32.9575 8.72033 33.0486 8.55284 33.3066 8.50716C33.9594 8.37013 34.6122 8.21787 35.2802 8.11128C35.857 8.01992 36.4491 7.95902 37.0411 7.89811C37.2081 7.88289 37.284 7.80676 37.3447 7.66972C37.5421 7.30429 37.7546 6.92363 37.9671 6.57343C38.0582 6.43639 38.0734 6.31458 38.0127 6.16232C37.5876 5.12694 37.1626 4.10678 36.783 3.05617C36.525 2.34053 36.5553 2.32531 37.2233 1.94465C38.1341 1.42696 39.045 0.894038 39.9406 0.376346C40.3505 0.132726 40.3961 0.1175 40.6997 0.48293C41.4739 1.3965 42.2178 2.31008 42.9616 3.25411C43.0831 3.40637 43.1893 3.46727 43.4019 3.45205C43.7814 3.4216 44.1761 3.40637 44.5556 3.45205C44.7833 3.4825 44.9048 3.39114 45.0414 3.22365C45.8004 2.27963 46.5747 1.35083 47.3337 0.422025C47.5159 0.193631 47.698 0.178405 47.9409 0.315441C49.0036 0.939717 50.0662 1.53354 51.1289 2.14259C51.22 2.21872 51.2807 2.32531 51.3566 2.41666ZM47.6525 10.8063C47.6677 8.79646 46.013 7.10635 44.0243 7.09112C42.0204 7.0759 40.3505 8.72033 40.3354 10.7302C40.3202 12.7857 41.9142 14.4302 43.9636 14.4454C45.9978 14.4759 47.6373 12.8466 47.6525 10.8063Z" fill="url(#paint3_linear_2_106)" fill-opacity="0.4"/>
<path d="M51.3566 31.849C51.2655 32.1992 51.2048 32.5189 51.0834 32.8082C50.719 33.737 50.3395 34.6658 49.9448 35.5946C49.8841 35.7469 49.8993 35.8535 49.9903 36.0057C50.2029 36.3407 50.4154 36.6909 50.5976 37.0564C50.6887 37.2543 50.8101 37.3152 51.0226 37.3456C52.1156 37.4979 53.2087 37.6654 54.2865 37.8329C54.3017 37.8329 54.3017 37.8329 54.3169 37.8329C55 38.0004 55 38.0004 55 38.6856C55 39.7819 54.9848 40.8781 55 41.9744C55 42.2485 54.8937 42.4008 54.6508 42.4617C53.9373 42.6139 53.2238 42.7662 52.5103 42.888C51.979 42.9794 51.4477 43.0098 50.9164 43.0859C50.8101 43.1012 50.6887 43.1925 50.6279 43.2991C50.4002 43.6645 50.2029 44.0452 49.9752 44.4106C49.8841 44.5629 49.8841 44.6695 49.9448 44.8217C50.3699 45.8571 50.7949 46.8773 51.1744 47.9279C51.4325 48.6435 51.4022 48.6588 50.7494 49.0242C49.8082 49.5723 48.867 50.1052 47.9409 50.6534C47.6829 50.8057 47.5007 50.7904 47.3185 50.562C46.5443 49.618 45.7701 48.674 45.0262 47.73C44.8896 47.5625 44.7681 47.5016 44.5708 47.5168C44.1761 47.532 43.7662 47.532 43.3715 47.5168C43.2045 47.5168 43.1134 47.5625 43.0072 47.6995C42.3089 48.5978 41.5954 49.4962 40.8667 50.3793C40.4416 50.8818 40.4113 50.8666 39.8496 50.5468C38.878 49.9834 37.9064 49.4201 36.9349 48.8719C36.7071 48.7501 36.6161 48.5826 36.7071 48.339C36.9804 47.5625 37.2385 46.7859 37.5269 46.0094C37.6787 45.6135 37.8609 45.2176 38.0431 44.8217C38.119 44.6695 38.1038 44.5629 38.0127 44.4106C37.785 44.0604 37.5725 43.7102 37.3903 43.3448C37.2992 43.1621 37.1778 43.1012 36.9804 43.0707C35.8722 42.9185 34.764 42.7357 33.6558 42.5683C33.5951 42.553 33.5495 42.5378 33.4888 42.5226C33.003 42.3703 32.9879 42.3551 32.9879 41.8374C32.9879 40.6954 33.003 39.5535 32.9879 38.3963C32.9879 38.1374 33.0789 38.0004 33.3067 37.9395C33.9139 37.8024 34.5059 37.6502 35.1132 37.5588C35.7508 37.4522 36.4187 37.4066 37.0563 37.3152C37.1626 37.3 37.2992 37.1934 37.3599 37.0868C37.5876 36.7366 37.7698 36.3559 37.9975 36.0057C38.1038 35.8535 38.0886 35.7317 38.0279 35.5642C37.618 34.544 37.1778 33.5239 36.8134 32.4885C36.5553 31.7576 36.5857 31.7576 37.2385 31.377C38.1645 30.844 39.0905 30.3263 40.0014 29.7782C40.2746 29.6107 40.4872 29.6259 40.6845 29.8696C41.4436 30.7984 42.2178 31.7424 42.9768 32.6712C43.0983 32.8082 43.1893 32.8844 43.3867 32.8844C43.7966 32.8691 44.2065 32.8691 44.6163 32.8844C44.7985 32.8996 44.8896 32.8387 45.011 32.7016C45.7853 31.7424 46.5595 30.7984 47.3337 29.8543C47.5159 29.6412 47.698 29.6107 47.9409 29.763C49.0036 30.3873 50.0662 30.9811 51.1289 31.6054C51.22 31.6358 51.2807 31.7576 51.3566 31.849ZM43.9636 43.8777C45.9978 43.8929 47.6373 42.2942 47.6525 40.2539C47.6677 38.2288 46.0433 36.5539 44.0546 36.5234C42.0204 36.5082 40.3505 38.1374 40.3354 40.1625C40.3202 42.2333 41.899 43.8473 43.9636 43.8777Z" fill="url(#paint4_linear_2_106)"/>
<path d="M51.3566 31.849C51.2655 32.1992 51.2048 32.5189 51.0834 32.8082C50.719 33.737 50.3395 34.6658 49.9448 35.5946C49.8841 35.7469 49.8993 35.8535 49.9903 36.0057C50.2029 36.3407 50.4154 36.6909 50.5976 37.0564C50.6887 37.2543 50.8101 37.3152 51.0226 37.3456C52.1156 37.4979 53.2087 37.6654 54.2865 37.8329C54.3017 37.8329 54.3017 37.8329 54.3169 37.8329C55 38.0004 55 38.0004 55 38.6856C55 39.7819 54.9848 40.8781 55 41.9744C55 42.2485 54.8937 42.4008 54.6508 42.4617C53.9373 42.6139 53.2238 42.7662 52.5103 42.888C51.979 42.9794 51.4477 43.0098 50.9164 43.0859C50.8101 43.1012 50.6887 43.1925 50.6279 43.2991C50.4002 43.6645 50.2029 44.0452 49.9752 44.4106C49.8841 44.5629 49.8841 44.6695 49.9448 44.8217C50.3699 45.8571 50.7949 46.8773 51.1744 47.9279C51.4325 48.6435 51.4022 48.6588 50.7494 49.0242C49.8082 49.5723 48.867 50.1052 47.9409 50.6534C47.6829 50.8057 47.5007 50.7904 47.3185 50.562C46.5443 49.618 45.7701 48.674 45.0262 47.73C44.8896 47.5625 44.7681 47.5016 44.5708 47.5168C44.1761 47.532 43.7662 47.532 43.3715 47.5168C43.2045 47.5168 43.1134 47.5625 43.0072 47.6995C42.3089 48.5978 41.5954 49.4962 40.8667 50.3793C40.4416 50.8818 40.4113 50.8666 39.8496 50.5468C38.878 49.9834 37.9064 49.4201 36.9349 48.8719C36.7071 48.7501 36.6161 48.5826 36.7071 48.339C36.9804 47.5625 37.2385 46.7859 37.5269 46.0094C37.6787 45.6135 37.8609 45.2176 38.0431 44.8217C38.119 44.6695 38.1038 44.5629 38.0127 44.4106C37.785 44.0604 37.5725 43.7102 37.3903 43.3448C37.2992 43.1621 37.1778 43.1012 36.9804 43.0707C35.8722 42.9185 34.764 42.7357 33.6558 42.5683C33.5951 42.553 33.5495 42.5378 33.4888 42.5226C33.003 42.3703 32.9879 42.3551 32.9879 41.8374C32.9879 40.6954 33.003 39.5535 32.9879 38.3963C32.9879 38.1374 33.0789 38.0004 33.3067 37.9395C33.9139 37.8024 34.5059 37.6502 35.1132 37.5588C35.7508 37.4522 36.4187 37.4066 37.0563 37.3152C37.1626 37.3 37.2992 37.1934 37.3599 37.0868C37.5876 36.7366 37.7698 36.3559 37.9975 36.0057C38.1038 35.8535 38.0886 35.7317 38.0279 35.5642C37.618 34.544 37.1778 33.5239 36.8134 32.4885C36.5553 31.7576 36.5857 31.7576 37.2385 31.377C38.1645 30.844 39.0905 30.3263 40.0014 29.7782C40.2746 29.6107 40.4872 29.6259 40.6845 29.8696C41.4436 30.7984 42.2178 31.7424 42.9768 32.6712C43.0983 32.8082 43.1893 32.8844 43.3867 32.8844C43.7966 32.8691 44.2065 32.8691 44.6163 32.8844C44.7985 32.8996 44.8896 32.8387 45.011 32.7016C45.7853 31.7424 46.5595 30.7984 47.3337 29.8543C47.5159 29.6412 47.698 29.6107 47.9409 29.763C49.0036 30.3873 50.0662 30.9811 51.1289 31.6054C51.22 31.6358 51.2807 31.7576 51.3566 31.849ZM43.9636 43.8777C45.9978 43.8929 47.6373 42.2942 47.6525 40.2539C47.6677 38.2288 46.0433 36.5539 44.0546 36.5234C42.0204 36.5082 40.3505 38.1374 40.3354 40.1625C40.3202 42.2333 41.899 43.8473 43.9636 43.8777Z" fill="url(#paint5_linear_2_106)" fill-opacity="0.4"/>
<defs>
<linearGradient id="paint0_linear_2_106" x1="18.3156" y1="7.10632" x2="18.3156" y2="43.9082" gradientUnits="userSpaceOnUse">
<stop stop-color="#8F00FF"/>
<stop offset="1" stop-color="#5F78FF"/>
</linearGradient>
<linearGradient id="paint1_linear_2_106" x1="-1.09894" y1="33.5212" x2="41.6147" y2="19.693" gradientUnits="userSpaceOnUse">
<stop stop-color="#FF00D6"/>
<stop offset="1" stop-color="#323151"/>
</linearGradient>
<linearGradient id="paint2_linear_2_106" x1="43.9787" y1="0.199951" x2="43.9787" y2="21.3371" gradientUnits="userSpaceOnUse">
<stop stop-color="#8F00FF"/>
<stop offset="1" stop-color="#5F78FF"/>
</linearGradient>
<linearGradient id="paint3_linear_2_106" x1="32.2962" y1="15.3713" x2="57.7628" y2="6.73352" gradientUnits="userSpaceOnUse">
<stop stop-color="#FF00D6"/>
<stop offset="1" stop-color="#323151"/>
</linearGradient>
<linearGradient id="paint4_linear_2_106" x1="43.9939" y1="29.6671" x2="43.9939" y2="50.7741" gradientUnits="userSpaceOnUse">
<stop stop-color="#8F00FF"/>
<stop offset="1" stop-color="#5F78FF"/>
</linearGradient>
<linearGradient id="paint5_linear_2_106" x1="32.3275" y1="44.8168" x2="57.7587" y2="36.1906" gradientUnits="userSpaceOnUse">
<stop stop-color="#FF00D6"/>
<stop offset="1" stop-color="#323151"/>
</linearGradient>
</defs>
</svg>
