<svg width="129" height="34" viewBox="0 0 129 34" fill="none" xmlns="http://www.w3.org/2000/svg">
<path d="M14.0035 25.1363C13.7237 25.7476 13.3952 26.2733 13.2492 26.8479C13.1154 27.3858 12.8599 27.6426 12.3489 27.7404C12.0691 27.7893 11.8014 27.8626 11.5703 27.9238C11.5581 28.1071 11.6068 28.315 11.5216 28.4372C11.4729 28.5106 11.1809 28.5106 11.0958 28.4372C11.0106 28.3639 11.0349 28.1561 10.9984 27.9604C10.8159 27.936 10.5604 27.8871 10.3049 27.8504C10.3171 27.9115 10.3293 27.9604 10.3414 28.0216C10.1346 28.0827 9.91563 28.1316 9.7088 28.1927C9.6723 28.0216 9.62363 27.8626 9.5993 27.7771C9.07615 27.178 8.52866 26.6401 8.0785 26.0288C7.45802 25.1974 6.7767 24.4883 5.71823 24.2805C5.59656 24.256 5.4749 24.2071 5.3654 24.2316C5.12208 24.2927 4.89092 24.4027 4.64759 24.4883C4.78142 24.6961 4.85442 24.9896 5.04908 25.1118C6.13189 25.7842 6.75237 26.799 7.26336 27.936C7.85951 29.2931 9.02748 29.9288 10.4388 30.0633C11.2783 30.1366 12.1299 30.0755 13.0667 30.0755C13.0667 31.078 13.1032 32.1906 13.0545 33.3031C13.0302 33.9144 12.4341 34.1956 11.7406 33.9144C10.6943 33.4865 9.6358 33.0586 8.65032 32.4962C1.66683 28.4495 -1.64242 19.8669 0.803016 12.2625C3.34579 4.31571 10.8281 -0.696878 18.9552 0.0733484C27.1432 0.843575 33.64 7.18877 34.6255 15.3556C35.5867 23.278 30.9391 30.9313 23.4933 33.731C23.3595 33.7799 23.2256 33.8288 23.0918 33.8777C22.1672 34.1712 21.6683 33.8166 21.6683 32.8508C21.6683 31.3714 21.6805 29.8799 21.6927 28.4006C21.7048 27.2269 21.4737 26.1388 20.622 25.1852C20.8167 25.124 20.9505 25.0751 21.0965 25.0385C21.6927 24.9162 22.2888 24.8306 22.8728 24.6717C26.0726 23.8403 27.9462 21.6397 28.3355 18.3509C28.5423 16.5904 28.6153 14.8055 27.6299 13.2528C27.0215 12.2869 26.7174 11.4311 26.9485 10.2452C27.1067 9.41387 26.766 8.49694 26.6322 7.61668C26.5835 7.27436 26.3646 7.09097 26.0361 7.18877C25.0749 7.48219 24.0529 7.66558 23.1891 8.14239C22.1915 8.70478 21.3155 8.94929 20.1475 8.68032C17.9333 8.17907 15.6825 8.35023 13.456 8.86371C13.2005 8.92484 12.8721 8.82703 12.6166 8.717C11.4851 8.2402 10.3901 7.65336 9.23431 7.2499C8.34616 6.94426 8.2245 7.10319 7.96901 8.02013C7.66485 9.12045 7.60402 10.233 7.92034 11.3333C8.02984 11.7246 7.96901 11.9691 7.71351 12.2625C5.26807 15.0622 5.97372 21.6886 9.55064 23.7181C10.7551 24.4027 12.0326 24.7817 13.383 25.014C13.6264 25.0629 13.8332 25.0996 14.0035 25.1363Z" fill="#5F78FF"/>
<path d="M84.3129 14.2798C86.5272 14.2798 88.6442 14.2798 90.8584 14.2798C90.8584 14.023 90.8584 13.7907 90.8584 13.5584C90.8584 11.2355 90.8584 8.92485 90.8584 6.60194C90.8584 5.83172 90.8949 5.79504 91.6371 5.79504C92.7929 5.79504 93.9487 5.80727 95.1045 5.78281C95.6033 5.77059 95.7736 5.97843 95.7736 6.46746C95.7615 13.6318 95.7615 20.7839 95.7736 27.9482C95.7736 28.4984 95.5547 28.6451 95.0437 28.6329C93.8879 28.6084 92.7321 28.6084 91.5762 28.6329C91.0166 28.6451 90.8341 28.4495 90.8341 27.8871C90.8584 25.1241 90.8463 22.361 90.8584 19.5858C90.8584 19.3412 90.8584 19.109 90.8584 18.8278C88.6563 18.8278 86.5272 18.8278 84.3129 18.8278C84.3129 19.0967 84.3129 19.329 84.3129 19.5613C84.3129 22.3243 84.3008 25.0874 84.3251 27.8626C84.3251 28.4617 84.1183 28.6451 83.5464 28.6206C82.3906 28.584 81.2348 28.5962 80.079 28.6206C79.568 28.6329 79.4099 28.425 79.4099 27.936C79.422 20.7717 79.422 13.6196 79.4099 6.45523C79.4099 5.9662 79.568 5.75836 80.079 5.77059C81.2713 5.79504 82.4636 5.79504 83.6681 5.77059C84.1791 5.75836 84.3251 5.97843 84.3251 6.46746C84.3129 8.80259 84.3129 11.1499 84.3129 13.4851C84.3129 13.7418 84.3129 13.9863 84.3129 14.2798Z" fill="#5F78FF"/>
<path d="M52.7655 19.6469C51.8652 19.6469 51.0379 19.6224 50.2106 19.6591C49.6996 19.6713 49.4684 19.5124 49.4806 18.9622C49.5049 17.9475 49.5049 16.9327 49.4806 15.918C49.4684 15.4412 49.6509 15.27 50.1254 15.27C52.4127 15.2823 54.7 15.2823 56.9873 15.27C57.4374 15.27 57.6442 15.3923 57.6442 15.8935C57.6321 19.5368 57.6321 23.1679 57.6442 26.8112C57.6442 27.2024 57.4861 27.398 57.1698 27.5692C55.7341 28.3639 54.189 28.8407 52.5587 28.9996C50.4296 29.2075 48.3005 29.1219 46.2565 28.425C43.5191 27.4836 41.7671 25.5519 40.9642 22.8134C39.7962 18.8033 39.857 14.7688 41.1953 10.8076C42.4119 7.21322 45.0399 5.37934 48.7263 5.01257C50.9284 4.7925 53.094 4.93921 55.2231 5.51383C56.8169 5.94173 56.8413 6.00286 56.4641 7.57999C56.2938 8.28909 56.0991 8.99818 55.9653 9.71951C55.8679 10.2452 55.6368 10.3186 55.1623 10.1719C53.2765 9.5728 51.3542 9.43831 49.4076 9.78064C47.6557 10.0863 46.439 11.101 45.8794 12.7637C44.8939 15.6857 44.9061 18.6444 45.9159 21.5541C46.585 23.4736 48.045 24.4149 50.0646 24.4272C50.8311 24.4272 51.5976 24.3783 52.364 24.2927C52.51 24.2805 52.7534 24.0115 52.7534 23.8526C52.7777 22.471 52.7655 21.1017 52.7655 19.6469Z" fill="#5F78FF"/>
<path d="M119.121 13.4606C120.167 13.1794 121.141 12.8126 122.138 12.6659C125.679 12.1524 128.075 13.913 128.72 17.4584C129.146 19.7447 129.073 22.0309 128.611 24.3049C127.856 28.0705 125.654 29.3908 121.846 28.9996C120.459 28.8529 119.182 28.3761 118.062 27.5203C118.002 27.5692 117.965 27.5937 117.953 27.6303C117.77 28.6328 117.953 28.6573 116.724 28.6451C116.14 28.6451 115.544 28.6084 114.96 28.6573C114.364 28.694 114.206 28.4617 114.206 27.8748C114.23 23.2779 114.218 18.6933 114.218 14.0963C114.218 11.5778 114.23 9.05931 114.206 6.54079C114.206 5.97841 114.388 5.79502 114.948 5.80725C116.104 5.8317 117.259 5.8317 118.403 5.80725C118.926 5.79502 119.121 5.96618 119.109 6.50412C119.097 8.82702 119.121 11.1622 119.121 13.4606ZM119.024 20.7472C119.024 21.7986 118.999 22.8623 119.048 23.9137C119.06 24.1337 119.255 24.4394 119.449 24.5372C120.338 25.0018 121.299 25.124 122.284 25.0018C123.014 24.9162 123.562 24.5372 123.756 23.8159C124.279 21.8964 124.352 19.9647 123.756 18.0453C123.464 17.1161 122.759 16.566 121.797 16.6149C121.007 16.6638 120.228 16.9205 119.449 17.1039C119.097 17.1895 119.011 17.4462 119.024 17.8008C119.036 18.7911 119.024 19.7691 119.024 20.7472Z" fill="#5F78FF"/>
<path d="M108.536 27.5814C106.687 28.7062 104.765 29.2319 102.672 29.0485C101.978 28.9874 101.261 28.8651 100.604 28.6328C98.6571 27.936 97.9149 26.3466 97.8663 24.4272C97.7811 21.2729 97.8298 18.1186 97.8176 14.9766C97.8176 14.5243 97.8298 14.0841 97.8176 13.6318C97.8054 13.2528 97.9636 13.0816 98.3529 13.0816C99.6304 13.0938 100.908 13.0938 102.185 13.0816C102.733 13.0816 102.733 13.4239 102.733 13.8152C102.733 16.6638 102.733 19.5124 102.733 22.361C102.733 22.5077 102.733 22.6422 102.733 22.7889C102.733 24.7084 103.426 25.3074 105.336 25.0262C105.397 25.014 105.458 25.0018 105.519 24.9896C107.088 24.6472 107.198 24.5127 107.198 22.9356C107.198 19.9036 107.21 16.8716 107.186 13.8396C107.186 13.2405 107.368 13.0572 107.952 13.0694C109.108 13.1061 110.264 13.0938 111.42 13.0694C111.906 13.0572 112.052 13.2528 112.052 13.7174C112.04 18.4732 112.04 23.229 112.052 27.9971C112.052 28.4617 111.906 28.6695 111.42 28.6451C110.75 28.6206 110.081 28.6084 109.412 28.6573C108.865 28.694 108.609 28.4861 108.609 27.9482C108.621 27.8504 108.585 27.7526 108.536 27.5814Z" fill="#5F78FF"/>
<path d="M69.032 17.1528C68.3263 17.1528 67.6937 17.1406 67.0732 17.1528C66.6595 17.165 66.477 17.0061 66.4892 16.5782C66.5014 15.808 66.4649 15.0255 66.5135 14.2553C66.5257 14.0475 66.769 13.7663 66.9759 13.6929C67.5112 13.4973 68.0708 13.3995 68.6183 13.2772C68.9347 13.2161 69.0442 13.0694 69.032 12.7393C69.0198 11.5412 69.032 10.343 69.0198 9.1449C69.0076 8.74145 69.1536 8.60696 69.543 8.60696C70.7961 8.61919 72.0492 8.61919 73.3145 8.60696C73.716 8.59474 73.8499 8.74145 73.8499 9.13267C73.8377 10.1841 73.8499 11.2477 73.8499 12.3114C73.8499 12.5314 73.8499 12.7515 73.8499 13.0449C74.8232 13.0449 75.7235 13.0694 76.636 13.0327C77.1591 13.0083 77.3659 13.1672 77.3416 13.7174C77.3051 14.6343 77.3051 15.5512 77.3416 16.4682C77.3659 17.0183 77.1348 17.1773 76.6238 17.165C75.7356 17.1406 74.8475 17.1528 73.8864 17.1528C73.8742 17.3851 73.8499 17.5807 73.8499 17.7763C73.8499 19.5857 73.8499 21.3952 73.8499 23.2046C73.8499 24.3783 74.4095 24.9651 75.5897 25.014C76.0155 25.0385 76.4413 25.014 76.8671 24.9773C77.2564 24.9529 77.4268 25.1118 77.4268 25.503C77.4146 26.3833 77.4511 27.2513 77.4024 28.1316C77.3903 28.3272 77.1591 28.6084 76.9766 28.6695C75.4315 29.1341 73.8742 29.1708 72.3047 28.7429C70.5406 28.2539 69.5308 27.0557 69.2023 25.283C69.0928 24.6717 69.0563 24.0359 69.0563 23.4002C69.0198 21.3585 69.032 19.3168 69.032 17.1528Z" fill="#5F78FF"/>
<path d="M60.041 20.7717C60.041 18.4487 60.0532 16.1381 60.0289 13.8152C60.0167 13.2405 60.1992 13.0205 60.7953 13.0327C61.9633 13.0694 63.1434 13.0572 64.3114 13.0327C64.7494 13.0205 64.9319 13.1672 64.9319 13.6318C64.9197 18.4121 64.9197 23.1801 64.9319 27.9604C64.9319 28.425 64.7616 28.6329 64.2871 28.6206C63.1191 28.6084 61.939 28.6084 60.771 28.6206C60.2113 28.6329 60.041 28.3639 60.041 27.8382C60.0532 25.4908 60.041 23.1312 60.041 20.7717Z" fill="#5F78FF"/>
<path d="M65.2239 9.12046C65.1752 10.6242 63.9464 11.8468 62.4865 11.8101C60.99 11.7735 59.7855 10.4898 59.822 8.97375C59.8707 7.45775 61.0873 6.27185 62.5595 6.2963C64.0924 6.33298 65.2726 7.59224 65.2239 9.12046Z" fill="#5F78FF"/>
</svg>
