<svg width="139" height="40" viewBox="0 0 139 40" fill="none" xmlns="http://www.w3.org/2000/svg">
<path d="M0 37.1602V2.83979C0.571898 1.5114 1.52719 0.561647 2.87547 0H136.125C137.46 0.574268 138.438 1.50193 139 2.83979V37.1602C138.425 38.4854 137.46 39.4257 136.125 40H2.87547C1.524 39.4415 0.581483 38.4791 0 37.1602ZM116.466 15.6031C114.808 13.5679 113.233 11.6526 111.673 9.72154C109.718 7.29826 107.192 6.11817 104.095 6.18127C104.057 6.18127 104.015 6.18127 103.977 6.18127C103.025 6.12132 102.593 6.54729 102.597 7.50651C102.609 15.8239 102.609 24.1414 102.597 32.4588C102.597 33.4874 103.066 33.8629 104.063 33.8345C105.338 33.7966 106.616 33.8282 107.894 33.825C109.402 33.8219 109.542 33.6894 109.546 32.2095C109.552 27.4797 109.546 22.7499 109.552 18.02C109.552 17.695 109.597 17.3669 109.622 17.0419C109.945 17.0577 109.996 17.2154 110.092 17.3353C111.865 19.5157 113.638 21.696 115.424 23.8668C116.271 24.8923 116.648 24.8923 117.482 23.8889C118.214 23.0054 118.929 22.1062 119.658 21.2195C120.824 19.8059 121.993 18.3987 123.393 16.7074C123.393 17.5436 123.393 18.0011 123.393 18.4618C123.393 22.8761 123.389 27.2904 123.393 31.7047C123.393 33.1182 124.091 33.8261 125.489 33.8282C126.485 33.8282 127.485 33.8282 128.482 33.8282C130.176 33.8282 130.335 33.6767 130.335 32.0202C130.335 24.3717 130.329 16.7264 130.342 9.07786C130.348 5.9888 130.466 6.14025 127.421 6.18758C123.297 6.25069 124.696 5.59438 122.022 8.79388C120.178 11.0026 118.383 13.2523 116.469 15.6062L116.466 15.6031ZM53.4485 20.945C53.8447 21.3647 54.0651 21.5666 54.2536 21.8001C57.2186 25.4666 60.1931 29.1236 63.1229 32.8153C63.6948 33.5348 64.3018 33.8755 65.2411 33.8408C66.9951 33.7777 68.7556 33.8597 70.5128 33.7998C71.0176 33.784 71.5128 33.4906 72.0112 33.3233C71.8323 32.8437 71.7652 32.2789 71.4585 31.8971C68.2348 27.8836 64.9951 23.8763 61.6947 19.9227C61.0334 19.1307 61.142 18.6637 61.7458 17.9412C64.4839 14.6533 67.1709 11.3244 69.8483 7.98612C70.1134 7.65481 70.417 6.9985 70.27 6.78078C70.0431 6.44948 69.4457 6.22229 68.9952 6.20336C67.4392 6.1371 65.8737 6.09608 64.3274 6.21598C63.7043 6.26331 62.9344 6.60724 62.5382 7.07107C60.4615 9.51645 58.4838 12.0439 56.4709 14.5429C55.538 15.6977 54.5987 16.8463 53.4517 18.2567C53.4517 17.5278 53.4517 17.1492 53.4517 16.7674C53.4517 13.6909 53.4261 10.6145 53.4645 7.53806C53.4773 6.57884 53.1098 6.15288 52.1418 6.1655C50.704 6.18443 49.2663 6.18758 47.8286 6.1655C46.8988 6.15288 46.4483 6.48734 46.4515 7.48442C46.4739 15.846 46.4707 24.2076 46.4579 32.5692C46.4579 33.4212 46.8158 33.8156 47.6592 33.8156C49.1768 33.8156 50.6945 33.8093 52.2121 33.8156C53.1226 33.8219 53.4709 33.3991 53.4613 32.4967C53.4293 29.1457 53.4485 25.7916 53.4485 22.4375C53.4485 22.021 53.4485 21.6076 53.4485 20.9356V20.945ZM15.8055 24.6115C19.927 24.6115 23.8696 24.6178 27.8153 24.6115C29.908 24.6083 30.8825 23.646 30.8889 21.5698C30.9017 17.471 30.8985 13.3754 30.8889 9.27664C30.8857 7.16889 29.8857 6.18758 27.7291 6.18443C21.943 6.17496 16.1601 6.18127 10.374 6.18443C8.87241 6.18443 8.69349 6.37375 8.69349 7.9167C8.69349 12.1322 8.69349 16.3477 8.69349 20.5632C8.69349 24.4253 8.6871 28.2843 8.69668 32.1464C8.69988 33.6673 8.86921 33.8156 10.4379 33.8219C11.7159 33.825 12.9939 33.7809 14.2687 33.8345C15.3997 33.8818 15.847 33.4369 15.8214 32.3073C15.7703 29.7925 15.8055 27.2777 15.8055 24.6115ZM84.7208 23.037C84.3566 22.5953 84.0786 22.2608 83.807 21.9232C80.545 17.8875 77.2861 13.8487 74.0177 9.81936C72.8707 8.40578 72.5895 8.42786 71.4425 9.89824C70.7365 10.8038 70.0815 11.7567 69.3051 12.5992C68.5096 13.4606 68.5511 14.1295 69.2987 15.0351C74.1295 20.9135 78.906 26.8328 83.7016 32.7365C84.4844 33.6988 84.9796 33.7114 85.7879 32.7396C90.328 27.2904 94.868 21.8411 99.3761 16.3635C99.6956 15.9754 99.9096 15.3853 99.9224 14.8836C99.9767 12.4383 99.9703 9.9929 99.9224 7.54753C99.916 7.14365 99.5997 6.74292 99.4272 6.3422C98.9927 6.53783 98.4368 6.62617 98.146 6.95117C96.9319 8.31112 95.8009 9.74048 94.6348 11.1414C91.3631 15.0667 88.0915 18.9919 84.7208 23.0338V23.037ZM35.1606 24.744H35.1733C35.1733 27.3409 35.1925 29.9377 35.1637 32.5377C35.1542 33.4401 35.5152 33.8408 36.429 33.8282C37.9018 33.8093 39.3779 33.8124 40.8508 33.8314C41.8157 33.844 42.1895 33.4085 42.1863 32.4588C42.1639 27.303 42.1639 22.1472 42.1863 16.9914C42.1895 16.0732 41.7741 15.7009 40.8955 15.704C39.461 15.7072 38.0264 15.7419 36.5919 15.6977C35.4928 15.663 35.1286 16.1426 35.1478 17.1902C35.1925 19.7081 35.1637 22.2261 35.1637 24.7472L35.1606 24.744ZM35.1606 9.53538C35.1606 13.082 35.1606 13.0946 38.7868 13.0788C42.6815 13.0599 42.1703 13.5111 42.1671 9.75941C42.1671 5.77108 42.739 6.18127 38.5312 6.18443C34.7037 6.18758 35.1957 5.76477 35.1606 9.53538Z" fill="#6F85FF"/>
</svg>
