<svg width="99" height="34" viewBox="0 0 99 34" fill="none" xmlns="http://www.w3.org/2000/svg">
<path d="M16.9805 0C26.3222 0 33.9601 7.60855 33.9601 16.9797C33.9601 26.3508 26.3516 33.9888 17.0098 33.9888C7.43305 33.9594 -0.0873632 26.1452 0.000766689 16.7153C0.0888966 7.57917 7.72682 0 16.9805 0ZM17.5974 13.0138C17.5974 12.9551 17.568 12.8963 17.568 12.867C17.8911 11.2512 18.2436 9.66491 18.5668 8.04919C18.6255 7.7848 18.7724 7.84356 18.9487 7.87293C19.8887 8.07857 20.8582 8.28421 21.8276 8.48984C22.092 8.5486 22.2389 8.6661 22.327 8.95987C22.5326 9.78242 23.267 10.3112 24.0896 10.2818C24.9121 10.2524 25.6172 9.69429 25.8228 8.87174C25.9991 8.07857 25.6466 7.2854 24.9415 6.90351C24.2071 6.49223 23.2964 6.60974 22.7383 7.2854C22.4739 7.60855 22.2389 7.60855 21.8863 7.54979C20.8288 7.31478 19.7712 7.10914 18.7137 6.87413C17.9499 6.72725 17.8618 6.786 17.7149 7.54979C17.3623 9.25364 16.9805 10.9281 16.6573 12.6319C16.5986 12.9551 16.4811 13.0726 16.1579 13.0726C13.984 13.2195 11.9277 13.7776 10.1063 14.9821C9.90069 15.0996 9.78318 15.0702 9.60692 14.9527C8.40248 14.1008 6.81614 14.3945 6.05235 15.5696C5.25918 16.7741 5.58232 18.3016 6.78677 19.1242C6.96303 19.2417 7.05116 19.3592 7.02178 19.5942C6.93365 20.5343 7.13929 21.4449 7.55056 22.2675C8.43186 24.0301 9.93006 25.117 11.6927 25.9102C13.8078 26.8209 16.0404 27.1146 18.3318 26.8796C20.535 26.674 22.5914 26.0277 24.354 24.6764C26.0285 23.4132 27.0566 21.7681 26.9391 19.5648C26.9097 19.3298 27.0273 19.2123 27.2035 19.0948C28.408 18.3016 28.7311 16.7153 27.9086 15.5402C27.1154 14.3652 25.5584 14.1008 24.3834 14.9233C24.1777 15.0702 24.0308 15.0702 23.8252 14.9233C22.562 14.1008 21.2107 13.572 19.7419 13.2782C19.0368 13.1901 18.3318 13.102 17.5974 13.0138Z" fill="#8F00FF"/>
<path d="M82.6078 14.1595C82.6078 13.2782 82.6078 12.4851 82.6078 11.6919C82.6078 10.7518 82.6078 9.78242 82.6078 8.84237C82.6078 8.01982 83.0778 7.49104 83.8416 7.52042C84.576 7.52042 85.0461 8.01982 85.0461 8.84237C85.0461 14.0127 85.0461 19.1829 85.0461 24.3826C85.0461 25.117 84.7229 25.587 84.106 25.7339C83.636 25.8514 82.931 25.6458 82.6959 24.9408C82.6959 24.9114 82.6372 24.882 82.6666 24.882C82.1378 25.1758 81.6678 25.5577 81.1096 25.7339C78.9064 26.439 76.9969 25.8514 75.4105 24.177C72.6491 21.2687 73.1485 16.2453 76.3506 13.9539C78.1132 12.6907 80.5221 12.6026 82.1084 13.7776C82.2259 13.8658 82.3728 13.9833 82.6078 14.1595ZM76.0568 19.2417C76.0568 20.4168 76.3212 21.3274 76.8794 22.15C78.1426 23.942 80.4339 24.0595 81.844 22.4437C83.2541 20.828 83.2541 18.1548 81.844 16.5097C80.7277 15.2171 78.9357 14.9821 77.6138 16.0103C76.5269 16.8916 76.0862 18.0666 76.0568 19.2417Z" fill="#8F00FF"/>
<path d="M69.7702 14.1008C69.7702 13.8952 69.7702 13.7189 69.7702 13.5426C69.7702 11.9269 69.7702 10.3112 69.7702 8.69549C69.7702 8.10796 70.1227 7.63794 70.6222 7.49105C71.1803 7.34417 71.7385 7.52043 72.0029 8.01983C72.1204 8.22547 72.1791 8.46048 72.1791 8.69549C72.1791 13.9539 72.1791 19.2123 72.1791 24.4707C72.1791 25.0877 71.7972 25.5577 71.2391 25.6752C70.6809 25.8221 70.1521 25.5577 69.8584 24.9995C69.829 24.9408 69.7996 24.8526 69.7409 24.7645C69.5646 24.9114 69.4177 25.0289 69.2415 25.1464C67.6845 26.2627 65.3931 26.2333 63.6305 25.0877C59.6353 22.4438 59.7822 16.0396 63.8949 13.6308C65.5106 12.6613 67.9489 12.5145 69.594 14.0127C69.6527 14.0714 69.6821 14.0714 69.7702 14.1008ZM70.064 19.653C70.064 18.566 69.7996 17.6847 69.3296 16.9503C68.0664 14.9821 65.6575 14.8352 64.1887 16.6272C62.8667 18.2429 62.8961 20.8868 64.2768 22.4438C65.6281 24.0007 67.7726 23.942 69.0946 22.3262C69.7409 21.5037 70.0346 20.5343 70.064 19.653Z" fill="#8F00FF"/>
<path d="M50.7048 20.2699C50.9692 21.6212 51.5861 22.6787 52.7906 23.2663C53.9656 23.8244 55.1113 23.5894 56.1689 22.8844C56.4333 22.7081 56.6683 22.4731 56.962 22.2969C57.5496 21.915 58.2252 22.0031 58.6365 22.4731C59.0478 22.9725 59.0478 23.6482 58.5484 24.177C57.4908 25.3226 56.1689 25.8808 54.6413 25.9983C50.8517 26.2921 48.3253 23.09 48.2372 19.8292C48.1491 17.3028 49.0304 15.1877 51.2042 13.807C53.7894 12.1325 57.1089 12.9551 58.8128 15.6284C59.3709 16.5097 59.7528 17.4497 59.8409 18.5073C59.9291 19.6236 59.3122 20.2992 58.1959 20.2992C55.8751 20.2992 53.5837 20.2992 51.263 20.2992C51.1161 20.2699 50.9398 20.2699 50.7048 20.2699ZM57.2558 18.096C56.7858 16.3922 55.2876 15.2465 53.8481 15.3933C52.4674 15.5402 51.028 16.8622 50.9105 18.096C53.0256 18.096 55.1113 18.096 57.2558 18.096Z" fill="#8F00FF"/>
<path d="M96.7674 13.2195C97.1493 13.2195 97.4724 13.2195 97.8249 13.2195C98.4712 13.2195 98.9706 13.6601 99 14.2477C99 14.8646 98.53 15.3346 97.8543 15.364H97.8249C97.5018 15.3933 97.0318 15.2758 96.8849 15.4521C96.7086 15.6577 96.7967 16.0984 96.7967 16.4215C96.7967 19.0948 96.7967 21.7681 96.7967 24.4413C96.7967 25.3814 95.9742 25.9689 95.1223 25.6752C94.6522 25.4989 94.3585 25.0583 94.3585 24.5001C94.3585 23.4719 94.3585 22.4437 94.3585 21.4156C94.3585 19.5648 94.3585 17.6847 94.3585 15.834C94.3585 15.4815 94.241 15.364 93.9178 15.3934C93.7122 15.4227 93.5066 15.3934 93.2715 15.3934C92.6546 15.364 92.214 14.9233 92.214 14.3358C92.214 13.7483 92.6253 13.2782 93.2422 13.2489C93.5066 13.2195 93.771 13.2195 94.0353 13.2489C94.2704 13.2489 94.3585 13.1607 94.3585 12.9257C94.3585 12.4557 94.3585 12.015 94.3585 11.545C94.3879 10.7812 94.8579 10.2524 95.5629 10.2524C96.2386 10.2524 96.7674 10.7812 96.7967 11.545C96.7674 12.0444 96.7674 12.6026 96.7674 13.2195Z" fill="#8F00FF"/>
<path d="M42.9788 14.4827C43.6544 13.7483 44.5063 13.2195 45.5345 13.0726C46.0633 12.9845 46.6508 12.9845 47.1796 13.0138C47.914 13.0726 48.3841 13.6308 48.3253 14.3652C48.2666 15.0115 47.679 15.5109 46.9446 15.4521C46.2102 15.3934 45.5052 15.4815 44.8882 15.834C43.5075 16.6272 42.8906 17.861 42.8906 19.4179C42.8613 21.1218 42.8906 22.7963 42.8906 24.5001C42.8906 25.1758 42.5381 25.6164 41.9506 25.7633C41.2455 25.9396 40.5405 25.4402 40.4818 24.7057C40.4818 24.647 40.4818 24.5882 40.4818 24.5001C40.4818 21.1512 40.4818 17.8316 40.4818 14.4827C40.4818 13.9539 40.7168 13.572 41.2162 13.3664C41.6862 13.1607 42.2443 13.2489 42.5675 13.6308C42.7144 13.807 42.8025 14.1302 42.9788 14.4827Z" fill="#8F00FF"/>
<path d="M90.5102 20.0349C90.5102 21.5331 90.5102 23.0313 90.5102 24.5001C90.5102 24.9995 90.2752 25.3814 89.8051 25.6164C89.3351 25.8221 88.8357 25.7927 88.4832 25.4108C88.2775 25.1758 88.0719 24.8232 88.0719 24.5001C88.0425 21.5037 88.0425 18.5073 88.0719 15.5109C88.0719 14.8058 88.6301 14.277 89.3057 14.277C89.9814 14.277 90.4808 14.8058 90.5102 15.5109C90.5102 17.0384 90.5102 18.5366 90.5102 20.0349Z" fill="#8F00FF"/>
<path d="M89.2763 13.1314C88.0719 13.1314 87.1318 12.1913 87.1612 10.9869C87.1612 9.78244 88.1306 8.84239 89.3057 8.87176C90.5102 8.87176 91.4502 9.84119 91.4502 11.0163C91.4208 12.2207 90.4808 13.1608 89.2763 13.1314Z" fill="#8F00FF"/>
<path d="M20.8875 17.0385C21.8276 17.0385 22.6208 17.8022 22.6208 18.7423C22.6208 19.6823 21.8276 20.5049 20.8875 20.4755C19.9475 20.4755 19.1837 19.7117 19.1543 18.7717C19.1543 17.8316 19.9181 17.0385 20.8875 17.0385Z" fill="#8F00FF"/>
<path d="M11.3695 18.801C11.3695 17.8316 12.1039 17.0678 13.044 17.0385C14.0134 17.0385 14.8066 17.7729 14.8066 18.7129C14.8359 19.6823 14.0722 20.4461 13.1027 20.4755C12.1627 20.5049 11.3695 19.7411 11.3695 18.801Z" fill="#8F00FF"/>
<path d="M17.333 24.7057C15.8935 24.6763 14.8066 24.5295 13.7784 24.0594C13.4552 23.9126 13.1321 23.6775 12.8677 23.4425C12.6915 23.2956 12.6033 23.0606 12.809 22.855C12.9852 22.6494 13.1909 22.6494 13.3965 22.8256C14.7184 23.8538 16.2754 23.9419 17.8324 23.7951C18.8312 23.7069 19.8006 23.5013 20.5644 22.7962C20.77 22.62 21.005 22.62 21.1519 22.8256C21.3282 23.0313 21.2694 23.2369 21.0638 23.4132C20.5056 23.9419 19.8006 24.2357 19.0662 24.3826C18.4199 24.5882 17.6855 24.647 17.333 24.7057Z" fill="#8F00FF"/>
</svg>
