<svg width="49" height="55" viewBox="0 0 49 55" fill="none" xmlns="http://www.w3.org/2000/svg">
<path d="M27.2982 0C28.2562 0.458907 28.4615 1.2161 28.3474 2.2257C27.7316 7.48018 27.1386 12.7347 26.5456 17.9892C26.3859 19.3659 26.2262 20.7655 26.0666 22.1423C26.0438 22.257 26.0666 22.3717 26.0666 22.5553C26.2719 22.5553 26.4543 22.5553 26.6596 22.5553C30.1037 22.5553 33.525 22.5553 36.9691 22.5553C38.0411 22.5553 38.6798 23.1748 38.5429 24.1156C38.4973 24.345 38.4061 24.5974 38.292 24.8039C33.3882 34.5098 28.4843 44.2157 23.5804 53.8986C23.1014 54.8623 22.3488 55.1836 21.5505 54.8394C20.9346 54.564 20.6609 54.0822 20.7065 53.4397C20.8206 52.2695 20.9574 51.0993 21.0715 49.9291C21.482 46.2119 21.8926 42.4948 22.326 38.7776C22.5312 37.0108 22.7137 35.2211 22.9418 33.3855C22.6909 33.3855 22.4856 33.3855 22.2803 33.3855C18.9959 33.3855 15.7342 33.3855 12.4498 33.3855C10.8304 33.3855 10.1233 32.2612 10.8532 30.7927C15.6886 20.9032 20.5697 11.0138 25.4964 1.14727C25.7244 0.711306 26.2034 0.390071 26.5456 0C26.7964 0 27.0473 0 27.2982 0Z" fill="url(#paint0_linear_2_88)"/>
<path d="M27.2982 0C28.2562 0.458907 28.4615 1.2161 28.3474 2.2257C27.7316 7.48018 27.1386 12.7347 26.5456 17.9892C26.3859 19.3659 26.2262 20.7655 26.0666 22.1423C26.0438 22.257 26.0666 22.3717 26.0666 22.5553C26.2719 22.5553 26.4543 22.5553 26.6596 22.5553C30.1037 22.5553 33.525 22.5553 36.9691 22.5553C38.0411 22.5553 38.6798 23.1748 38.5429 24.1156C38.4973 24.345 38.4061 24.5974 38.292 24.8039C33.3882 34.5098 28.4843 44.2157 23.5804 53.8986C23.1014 54.8623 22.3488 55.1836 21.5505 54.8394C20.9346 54.564 20.6609 54.0822 20.7065 53.4397C20.8206 52.2695 20.9574 51.0993 21.0715 49.9291C21.482 46.2119 21.8926 42.4948 22.326 38.7776C22.5312 37.0108 22.7137 35.2211 22.9418 33.3855C22.6909 33.3855 22.4856 33.3855 22.2803 33.3855C18.9959 33.3855 15.7342 33.3855 12.4498 33.3855C10.8304 33.3855 10.1233 32.2612 10.8532 30.7927C15.6886 20.9032 20.5697 11.0138 25.4964 1.14727C25.7244 0.711306 26.2034 0.390071 26.5456 0C26.7964 0 27.0473 0 27.2982 0Z" fill="url(#paint1_linear_2_88)" fill-opacity="0.4"/>
<path d="M21.0259 3.46472C20.9574 3.62534 20.889 3.76301 20.8206 3.90068C19.8398 5.89693 18.859 7.91612 17.8326 9.88942C17.6958 10.1418 17.4449 10.3942 17.1712 10.5089C11.6743 13.0559 8.02491 17.2319 6.65639 23.1748C5.1054 29.8978 6.86166 35.7718 11.6743 40.705C13.499 42.5865 15.6886 43.9403 18.152 44.8352C18.2888 44.8811 18.4485 44.9499 18.6309 45.0417C18.4029 46.992 18.1976 48.9424 17.9695 50.8928C8.09333 48.2999 -0.77924 38.2728 0.40681 25.2399C1.57005 12.597 11.6971 4.5661 21.0259 3.46472Z" fill="url(#paint2_linear_2_88)"/>
<path d="M21.0259 3.46472C20.9574 3.62534 20.889 3.76301 20.8206 3.90068C19.8398 5.89693 18.859 7.91612 17.8326 9.88942C17.6958 10.1418 17.4449 10.3942 17.1712 10.5089C11.6743 13.0559 8.02491 17.2319 6.65639 23.1748C5.1054 29.8978 6.86166 35.7718 11.6743 40.705C13.499 42.5865 15.6886 43.9403 18.152 44.8352C18.2888 44.8811 18.4485 44.9499 18.6309 45.0417C18.4029 46.992 18.1976 48.9424 17.9695 50.8928C8.09333 48.2999 -0.77924 38.2728 0.40681 25.2399C1.57005 12.597 11.6971 4.5661 21.0259 3.46472Z" fill="url(#paint3_linear_2_88)" fill-opacity="0.4"/>
<path d="M28.0053 51.5352C28.0965 51.3287 28.1878 51.1681 28.2562 51.0075C29.2598 49.0342 30.2406 47.0609 31.2669 45.0876C31.4038 44.8122 31.6775 44.5369 31.9512 44.4222C37.4025 41.8523 40.9834 37.6762 42.352 31.8022C43.8117 25.6529 42.3748 20.1001 38.2692 15.3045C36.262 12.9411 33.7303 11.2432 30.8336 10.1647C30.6967 10.1189 30.5371 10.05 30.3546 9.95824C30.5827 8.00789 30.8108 6.05753 31.0389 4.10718C41.1887 6.83767 49.7648 16.9795 48.6015 29.7601C47.4839 42.1506 37.6306 50.3421 28.0053 51.5352Z" fill="url(#paint4_linear_2_88)"/>
<path d="M28.0053 51.5352C28.0965 51.3287 28.1878 51.1681 28.2562 51.0075C29.2598 49.0342 30.2406 47.0609 31.2669 45.0876C31.4038 44.8122 31.6775 44.5369 31.9512 44.4222C37.4025 41.8523 40.9834 37.6762 42.352 31.8022C43.8117 25.6529 42.3748 20.1001 38.2692 15.3045C36.262 12.9411 33.7303 11.2432 30.8336 10.1647C30.6967 10.1189 30.5371 10.05 30.3546 9.95824C30.5827 8.00789 30.8108 6.05753 31.0389 4.10718C41.1887 6.83767 49.7648 16.9795 48.6015 29.7601C47.4839 42.1506 37.6306 50.3421 28.0053 51.5352Z" fill="url(#paint5_linear_2_88)" fill-opacity="0.4"/>
<defs>
<linearGradient id="paint0_linear_2_88" x1="24.5636" y1="0" x2="24.5636" y2="54.9733" gradientUnits="userSpaceOnUse">
<stop stop-color="#5F78FF"/>
<stop offset="1" stop-color="#323151"/>
</linearGradient>
<linearGradient id="paint1_linear_2_88" x1="8.1893" y1="17.05" x2="44.6048" y2="27.6864" gradientUnits="userSpaceOnUse">
<stop stop-color="#8F00FF"/>
<stop offset="1" stop-color="#FF00D6"/>
</linearGradient>
<linearGradient id="paint2_linear_2_88" x1="10.6629" y1="3.46472" x2="10.6629" y2="50.8928" gradientUnits="userSpaceOnUse">
<stop stop-color="#5F78FF"/>
<stop offset="1" stop-color="#323151"/>
</linearGradient>
<linearGradient id="paint3_linear_2_88" x1="-1.45948" y1="18.1746" x2="26.0706" y2="25.0747" gradientUnits="userSpaceOnUse">
<stop stop-color="#8F00FF"/>
<stop offset="1" stop-color="#FF00D6"/>
</linearGradient>
<linearGradient id="paint4_linear_2_88" x1="38.3564" y1="4.10718" x2="38.3564" y2="51.5352" gradientUnits="userSpaceOnUse">
<stop stop-color="#5F78FF"/>
<stop offset="1" stop-color="#323151"/>
</linearGradient>
<linearGradient id="paint5_linear_2_88" x1="26.2479" y1="18.817" x2="53.7503" y2="25.7024" gradientUnits="userSpaceOnUse">
<stop stop-color="#8F00FF"/>
<stop offset="1" stop-color="#FF00D6"/>
</linearGradient>
</defs>
</svg>
