<svg width="50" height="50" viewBox="0 0 50 50" fill="none" xmlns="http://www.w3.org/2000/svg">
<path d="M49.25 44.9679C49.1183 45.4347 49.0372 45.9319 48.8446 46.3683C47.8413 48.6818 45.2874 49.8081 42.9159 48.9761C42.47 48.8239 42.0443 48.5093 41.6896 48.1846C40.3113 46.9162 38.9533 45.6275 37.6256 44.3084C30.7544 37.4692 23.8933 30.6097 17.0221 23.7603C16.5356 23.2733 16.0491 22.7963 15.5728 22.3093C15.4715 22.1977 15.3803 22.1672 15.2282 22.218C13.931 22.5833 12.6236 22.8166 11.2656 22.7761C6.19833 22.6441 1.85059 19.1738 0.654713 14.2423C0.502695 13.6334 0.441887 12.9942 0.340541 12.3752C0.330407 12.3143 0.310138 12.2433 0.300003 12.1824C0.300003 11.6852 0.300003 11.188 0.300003 10.6806C0.330407 10.4472 0.360811 10.224 0.401349 9.99061C0.49256 9.49339 0.583771 9.00633 0.695251 8.46853C0.806732 8.57 0.867539 8.63088 0.928347 8.69177C1.97221 9.73693 3.01607 10.7922 4.07007 11.8272C5.21527 12.9739 6.38075 14.0799 7.53609 15.2164C7.95161 15.6223 8.42793 15.7339 8.9752 15.6527C9.2691 15.6121 9.57314 15.5614 9.84677 15.4599C12.4412 14.496 14.235 12.6898 15.4309 10.2341C15.664 9.74708 15.7755 9.22957 15.8059 8.69177C15.8363 8.15397 15.735 7.6872 15.3194 7.29146C14.8127 6.81454 14.3465 6.28689 13.8601 5.78967C12.2892 4.20671 10.7183 2.62375 9.15762 1.04079C9.04614 0.929174 8.9448 0.807408 8.79278 0.634906C9.46166 0.51314 10.0799 0.401521 10.6879 0.300049C10.84 0.300049 10.992 0.300049 11.1339 0.300049C11.2453 0.310196 11.3467 0.33049 11.4582 0.33049C12.1169 0.371079 12.7959 0.360932 13.4445 0.472551C16.3633 0.969763 18.7247 2.40052 20.5185 4.76481C21.7954 6.44924 22.5555 8.35691 22.738 10.4777C22.8798 12.0708 22.7177 13.6334 22.2414 15.1555C22.1806 15.3382 22.211 15.4701 22.363 15.6121C29.0923 22.3499 35.8318 29.0977 42.551 35.8558C44.4563 37.7634 46.3211 39.7117 48.196 41.6498C48.5304 41.9847 48.7737 42.3804 48.9156 42.837C49.0372 43.2531 49.1385 43.6691 49.25 44.0851C49.25 44.3693 49.25 44.6635 49.25 44.9679ZM44.4969 46.3683C45.4698 46.3784 46.3819 45.5057 46.3921 44.5519C46.4022 43.527 45.5306 42.695 44.4462 42.6747C43.3618 42.6442 42.6423 43.659 42.6524 44.4606C42.6625 45.5159 43.4733 46.3581 44.4969 46.3683Z" fill="url(#paint0_linear_2_93)"/>
<path d="M49.25 44.9679C49.1183 45.4347 49.0372 45.9319 48.8446 46.3683C47.8413 48.6818 45.2874 49.8081 42.9159 48.9761C42.47 48.8239 42.0443 48.5093 41.6896 48.1846C40.3113 46.9162 38.9533 45.6275 37.6256 44.3084C30.7544 37.4692 23.8933 30.6097 17.0221 23.7603C16.5356 23.2733 16.0491 22.7963 15.5728 22.3093C15.4715 22.1977 15.3803 22.1672 15.2282 22.218C13.931 22.5833 12.6236 22.8166 11.2656 22.7761C6.19833 22.6441 1.85059 19.1738 0.654713 14.2423C0.502695 13.6334 0.441887 12.9942 0.340541 12.3752C0.330407 12.3143 0.310138 12.2433 0.300003 12.1824C0.300003 11.6852 0.300003 11.188 0.300003 10.6806C0.330407 10.4472 0.360811 10.224 0.401349 9.99061C0.49256 9.49339 0.583771 9.00633 0.695251 8.46853C0.806732 8.57 0.867539 8.63088 0.928347 8.69177C1.97221 9.73693 3.01607 10.7922 4.07007 11.8272C5.21527 12.9739 6.38075 14.0799 7.53609 15.2164C7.95161 15.6223 8.42793 15.7339 8.9752 15.6527C9.2691 15.6121 9.57314 15.5614 9.84677 15.4599C12.4412 14.496 14.235 12.6898 15.4309 10.2341C15.664 9.74708 15.7755 9.22957 15.8059 8.69177C15.8363 8.15397 15.735 7.6872 15.3194 7.29146C14.8127 6.81454 14.3465 6.28689 13.8601 5.78967C12.2892 4.20671 10.7183 2.62375 9.15762 1.04079C9.04614 0.929174 8.9448 0.807408 8.79278 0.634906C9.46166 0.51314 10.0799 0.401521 10.6879 0.300049C10.84 0.300049 10.992 0.300049 11.1339 0.300049C11.2453 0.310196 11.3467 0.33049 11.4582 0.33049C12.1169 0.371079 12.7959 0.360932 13.4445 0.472551C16.3633 0.969763 18.7247 2.40052 20.5185 4.76481C21.7954 6.44924 22.5555 8.35691 22.738 10.4777C22.8798 12.0708 22.7177 13.6334 22.2414 15.1555C22.1806 15.3382 22.211 15.4701 22.363 15.6121C29.0923 22.3499 35.8318 29.0977 42.551 35.8558C44.4563 37.7634 46.3211 39.7117 48.196 41.6498C48.5304 41.9847 48.7737 42.3804 48.9156 42.837C49.0372 43.2531 49.1385 43.6691 49.25 44.0851C49.25 44.3693 49.25 44.6635 49.25 44.9679ZM44.4969 46.3683C45.4698 46.3784 46.3819 45.5057 46.3921 44.5519C46.4022 43.527 45.5306 42.695 44.4462 42.6747C43.3618 42.6442 42.6423 43.659 42.6524 44.4606C42.6625 45.5159 43.4733 46.3581 44.4969 46.3683Z" fill="url(#paint1_linear_2_93)" fill-opacity="0.4"/>
<path d="M49.25 6.24628C49.1689 6.67246 49.1183 7.09864 49.0068 7.51468C48.8142 8.23513 48.4899 8.8947 47.9528 9.44264C45.8651 11.5634 43.7976 13.6943 41.7099 15.8151C39.7539 17.8039 37.7777 19.7623 35.8014 21.741C35.7507 21.7918 35.6899 21.8425 35.7001 21.8222C35.1123 21.2844 34.5245 20.7466 33.9265 20.1987C37.1899 16.9414 40.4228 13.7045 43.6456 10.498C43.1084 9.9703 42.6017 9.47309 42.1051 8.96573C38.9026 12.1722 35.6595 15.4092 32.4165 18.6563C31.9097 18.1388 31.4233 17.6517 30.947 17.1646C34.1698 13.9378 37.4128 10.7009 40.6457 7.46394C40.1086 6.93629 39.6019 6.43908 39.085 5.93172C35.8724 9.14838 32.6293 12.3853 29.4065 15.6121C28.8288 15.0337 28.2613 14.4756 27.6836 13.8973C27.7039 13.877 27.7343 13.8364 27.7748 13.7958C31.6868 9.90941 35.5886 6.02304 39.5005 2.14682C39.764 1.88299 40.0478 1.62931 40.3316 1.39593C41.0917 0.776951 41.9734 0.472536 42.9362 0.350769C42.9868 0.340622 43.0476 0.320328 43.0983 0.310181C43.4125 0.310181 43.7267 0.310181 44.051 0.310181C44.1016 0.320328 44.1624 0.350769 44.2131 0.350769C46.6555 0.553713 48.4696 2.45124 48.9865 4.30817C49.1081 4.7445 49.1588 5.20112 49.25 5.6476C49.25 5.85054 49.25 6.04334 49.25 6.24628Z" fill="url(#paint2_linear_2_93)"/>
<path d="M49.25 6.24628C49.1689 6.67246 49.1183 7.09864 49.0068 7.51468C48.8142 8.23513 48.4899 8.8947 47.9528 9.44264C45.8651 11.5634 43.7976 13.6943 41.7099 15.8151C39.7539 17.8039 37.7777 19.7623 35.8014 21.741C35.7507 21.7918 35.6899 21.8425 35.7001 21.8222C35.1123 21.2844 34.5245 20.7466 33.9265 20.1987C37.1899 16.9414 40.4228 13.7045 43.6456 10.498C43.1084 9.9703 42.6017 9.47309 42.1051 8.96573C38.9026 12.1722 35.6595 15.4092 32.4165 18.6563C31.9097 18.1388 31.4233 17.6517 30.947 17.1646C34.1698 13.9378 37.4128 10.7009 40.6457 7.46394C40.1086 6.93629 39.6019 6.43908 39.085 5.93172C35.8724 9.14838 32.6293 12.3853 29.4065 15.6121C28.8288 15.0337 28.2613 14.4756 27.6836 13.8973C27.7039 13.877 27.7343 13.8364 27.7748 13.7958C31.6868 9.90941 35.5886 6.02304 39.5005 2.14682C39.764 1.88299 40.0478 1.62931 40.3316 1.39593C41.0917 0.776951 41.9734 0.472536 42.9362 0.350769C42.9868 0.340622 43.0476 0.320328 43.0983 0.310181C43.4125 0.310181 43.7267 0.310181 44.051 0.310181C44.1016 0.320328 44.1624 0.350769 44.2131 0.350769C46.6555 0.553713 48.4696 2.45124 48.9865 4.30817C49.1081 4.7445 49.1588 5.20112 49.25 5.6476C49.25 5.85054 49.25 6.04334 49.25 6.24628Z" fill="url(#paint3_linear_2_93)" fill-opacity="0.4"/>
<path d="M16.5052 30.2343C17.4477 31.2084 18.299 32.1013 19.1706 33.0044C19.1604 33.0146 19.0895 33.0856 19.0287 33.1566C16.0897 36.0993 13.1506 39.0319 10.2218 41.9745C10.1305 42.0659 10.0495 42.2181 10.0292 42.35C9.91771 43.1618 9.83664 43.9837 9.73529 44.8056C9.72516 44.9071 9.65421 45.0288 9.57314 45.0796C7.41447 46.4596 5.24567 47.8295 3.08701 49.1993C3.07688 49.2095 3.05661 49.2095 3.03634 49.2196C3.01607 49.2196 2.9958 49.2196 2.98566 49.2095C2.18503 48.3876 1.3844 47.5656 0.573635 46.7539C0.370944 46.5509 0.381079 46.3886 0.533097 46.1552C1.83032 44.1663 3.09714 42.1775 4.35383 40.1785C4.48558 39.9755 4.6376 39.8538 4.88083 39.8233C5.62065 39.732 6.36048 39.6305 7.1003 39.5189C7.23205 39.4986 7.38407 39.4276 7.48542 39.3261C9.98866 36.8401 12.4919 34.3439 14.9749 31.8477C15.4917 31.3403 15.9782 30.7923 16.5052 30.2343Z" fill="url(#paint4_linear_2_93)"/>
<path d="M16.5052 30.2343C17.4477 31.2084 18.299 32.1013 19.1706 33.0044C19.1604 33.0146 19.0895 33.0856 19.0287 33.1566C16.0897 36.0993 13.1506 39.0319 10.2218 41.9745C10.1305 42.0659 10.0495 42.2181 10.0292 42.35C9.91771 43.1618 9.83664 43.9837 9.73529 44.8056C9.72516 44.9071 9.65421 45.0288 9.57314 45.0796C7.41447 46.4596 5.24567 47.8295 3.08701 49.1993C3.07688 49.2095 3.05661 49.2095 3.03634 49.2196C3.01607 49.2196 2.9958 49.2196 2.98566 49.2095C2.18503 48.3876 1.3844 47.5656 0.573635 46.7539C0.370944 46.5509 0.381079 46.3886 0.533097 46.1552C1.83032 44.1663 3.09714 42.1775 4.35383 40.1785C4.48558 39.9755 4.6376 39.8538 4.88083 39.8233C5.62065 39.732 6.36048 39.6305 7.1003 39.5189C7.23205 39.4986 7.38407 39.4276 7.48542 39.3261C9.98866 36.8401 12.4919 34.3439 14.9749 31.8477C15.4917 31.3403 15.9782 30.7923 16.5052 30.2343Z" fill="url(#paint5_linear_2_93)" fill-opacity="0.4"/>
<defs>
<linearGradient id="paint0_linear_2_93" x1="24.775" y1="0.300049" x2="24.775" y2="49.2491" gradientUnits="userSpaceOnUse">
<stop stop-color="#FF00D6"/>
<stop offset="1" stop-color="#8F00FF"/>
</linearGradient>
<linearGradient id="paint1_linear_2_93" x1="-10.7" y1="19.825" x2="57.225" y2="33.025" gradientUnits="userSpaceOnUse">
<stop stop-color="#5F78FF"/>
<stop offset="1" stop-color="#323151"/>
</linearGradient>
<linearGradient id="paint2_linear_2_93" x1="38.4668" y1="0.310181" x2="38.4668" y2="21.8268" gradientUnits="userSpaceOnUse">
<stop stop-color="#FF00D6"/>
<stop offset="1" stop-color="#8F00FF"/>
</linearGradient>
<linearGradient id="paint3_linear_2_93" x1="22.8372" y1="8.89281" x2="52.7586" y2="14.7208" gradientUnits="userSpaceOnUse">
<stop stop-color="#5F78FF"/>
<stop offset="1" stop-color="#323151"/>
</linearGradient>
<linearGradient id="paint4_linear_2_93" x1="9.79534" y1="30.2343" x2="9.79534" y2="49.2196" gradientUnits="userSpaceOnUse">
<stop stop-color="#FF00D6"/>
<stop offset="1" stop-color="#8F00FF"/>
</linearGradient>
<linearGradient id="paint5_linear_2_93" x1="-3.79348" y1="37.8072" x2="22.2488" y2="42.8053" gradientUnits="userSpaceOnUse">
<stop stop-color="#5F78FF"/>
<stop offset="1" stop-color="#323151"/>
</linearGradient>
</defs>
</svg>
